<?xml version="1.0" encoding="iso-8859-1"?>
<!-- Generator: Adobe Illustrator 19.0.0, SVG Export Plug-In . SVG Version: 6.00 Build 0)  -->
<svg version="1.1" id="Layer_1" xmlns="http://www.w3.org/2000/svg" xmlns:xlink="http://www.w3.org/1999/xlink" x="0px" y="0px"
	 viewBox="0 0 512 512" style="enable-background:new 0 0 512 512;" xml:space="preserve">
<g>
	<g>
		<path d="M256,0C114.51,0,0,114.497,0,256c0,68.38,26.629,132.667,74.981,181.019C123.333,485.371,187.62,512,256,512
			c141.49,0,256-114.497,256-256C512,114.51,397.503,0,256,0z M363.435,171.343l-59.788,124.32c-1.678,3.49-4.494,6.306-7.984,7.984
			l-124.322,59.788c-14.495,6.975-29.753-8.271-22.777-22.777l59.788-124.322c1.678-3.49,4.494-6.306,7.984-7.984l124.322-59.788
			C355.153,141.594,370.413,156.832,363.435,171.343z"/>
	</g>
</g>
<g>
</g>
<g>
</g>
<g>
</g>
<g>
</g>
<g>
</g>
<g>
</g>
<g>
</g>
<g>
</g>
<g>
</g>
<g>
</g>
<g>
</g>
<g>
</g>
<g>
</g>
<g>
</g>
<g>
</g>
</svg>
